PathFileType	4	(X/Y/Z)	C:/Users/beibeiliu/ov580/test_trc/capture2\sequence.16_training_dense_right.trc
DataRate	CameraRate	NumFrames	NumMarkers	Units	OrigDataRate	OrigDataStartFrame	OrigNumFrames
120	120	20	19	mm	120	301	400
Frame#	Time	ThumbCMC			ThumbMCP			ThumbIP			ThumbTip			IndexMCP			IndexPIP			IndexTip			MiddleMCP			MiddlePIP			MiddleTip			RingMCP			RingPIP			RingTip			PinkyMCP			PinkyPIP			PinkyTip			BackHand1			BackHand2			BackHand3	
		X0	Y0	Z0	X1	Y1	Z1	X2	Y2	Z2	X3	Y3	Z3	X4	Y4	Z4	X5	Y5	Z5	X6	Y6	Z6	X7	Y7	Z7	X8	Y8	Z8	X9	Y9	Z9	X10	Y10	Z10	X11	Y11	Z11	X12	Y12	Z12	X13	Y13	Z13	X14	Y14	Z14	X15	Y15	Z15	X16	Y16	Z16	X17	Y17	Z17	X18	Y18	Z18	
300	2.5	140.87	124.952	-43.9375	121.615	123.582	-67.6538	104.405	131.763	-88.0575	93.2053	135.001	-100.081	153.614	167.591	-108.704	152.549	174.002	-130.794	155.419	185.735	-155.017	174.071	144.336	-119.367	170.524	115.145	-127.561	170.799	101.035	-91.1045	192.137	133.749	-112.054	184.949	103.033	-108.968	175.19	103.156	-77.6314	206.811	125.886	-104.376	194.205	100.147	-91.3363	184.75	109.454	-65.0961	193.929	157.64	-61.4921	192.829	146.674	-31.1412	160.946	152.345	-45.8718	
301	2.50833	135.712	116.564	-43.525	124.417	115.255	-69.8549	104.935	119.446	-87.5297	92.2335	125.752	-104.902	149.739	161.716	-107.874	149.027	168.806	-131.559	153.911	180.83	-155.124	176.08	139.477	-120.582	175.008	108.418	-125.419	172.689	97.983	-88.7491	190.851	129.06	-112.095	186.958	101.249	-108.637	175.57	101.44	-74.8676	203.914	126.456	-102.754	199.006	101.003	-93.8134	186.041	109.451	-60.4564	192.472	153.245	-58.321	191.144	143.128	-26.6708	162.298	147.396	-48.6082	
302	2.51667	140.555	109.911	-45.5328	127.209	106.481	-69.774	108.819	109.981	-89.4102	97.4196	112.144	-104.795	146.532	154.072	-105.742	148.883	163.72	-131.693	150.213	175.216	-155.941	173.671	136.514	-115.675	179.384	104.547	-123.121	175.219	93.5983	-87.724	194.154	127.011	-111.962	192.277	97.267	-104.508	182.18	98.4064	-72.1163	205.924	125.772	-101.481	201.447	97.9521	-90.5707	189.426	106.172	-61.9408	186.9	151.954	-59.2138	187.251	138.753	-25.4327	158.518	142.046	-47.382	
303	2.525	139.245	103.503	-44.5302	127.56	100.035	-71.1286	108.59	100.835	-91.0032	96.7191	100.565	-104.216	148.115	149.03	-105.016	143.763	157.603	-130.707	146.948	168.114	-150.968	176.695	131.525	-118.35	177.987	98.4752	-122.558	176.396	89.2971	-89.118	193.217	127.189	-107.651	195.836	93.6479	-103.309	182.837	94.8742	-70.6979	209.697	121.846	-101.743	204.443	96.6928	-90.6013	186.109	102.562	-61.5466	185.692	148.26	-60.3964	186.398	136.548	-27.9797	155.286	135.307	-46.1359	
304	2.53333	143.379	98.3585	-45.356	131.302	92.988	-70.4546	116.652	93.8436	-91.5989	104.41	92.9196	-108.017	146.083	143.508	-109.606	146.142	149.69	-129.451	150.968	162.202	-155.075	176.025	126.387	-118.13	184.5	96.1487	-122.76	177.482	83.9054	-85.958	194.133	119.112	-109.753	196.202	88.1131	-101.262	186.842	89.4947	-71.7124	212.702	118.992	-99.9531	207.918	93.3919	-90.3476	195.464	97.0518	-60.1833	187.355	145.042	-59.4802	187.386	135.183	-28.9226	154.585	131.82	-44.8362	
305	2.54167	145.628	91.1723	-44.5516	135.848	82.9403	-67.8024	121.55	85.7677	-93.9358	109.603	85.1019	-112.662	150.366	134.38	-107.769	148.17	141.041	-130.62	151.292	153.135	-154.132	179.03	121.874	-115.228	187.734	89.1662	-121.365	183.553	78.0265	-88.7194	199.098	113.601	-108.968	201.318	86.1136	-103.632	188.795	84.0657	-71.1308	216.782	117.473	-95.261	211.248	86.8712	-84.7916	194.681	91.7368	-62.3956	189.139	139.508	-55.8188	190.132	132.102	-27.4208	156.493	123.985	-45.6261	
306	2.55	145.922	85.056	-46.3594	137.247	75.6431	-70.6056	122.829	75.1162	-94.5778	115.674	73.8964	-111.594	150.637	127.705	-112.4	154.821	134.225	-133.14	158.597	145.561	-156.216	184.726	114.919	-116.745	193.333	82.2276	-120.805	190.709	72.7651	-87.615	202.69	110.314	-106.019	206.198	80.7046	-100.545	195.091	79.7712	-67.1006	216.103	111.174	-95.8393	217.279	84.7424	-86.4309	196.796	87.0583	-56.2385	188.022	133.94	-55.4357	190.346	125.171	-24.5866	161.454	120.147	-48.772	
307	2.55833	149.851	78.6541	-47.7137	144.003	69.8479	-72.5491	130.95	67.3411	-94.299	117.655	65.15	-117.536	160.624	121.59	-113.787	156.838	125.82	-139.23	161.142	134.021	-159.272	189.108	106.628	-118.184	201.019	75.7082	-119.355	195.407	64.5523	-87.1676	210.783	104.02	-105.563	210.7	74.4569	-98.5603	196.755	73.7416	-66.4736	224.199	105.888	-92.4036	219.488	77.9494	-81.4701	198.786	81.09	-57.7361	192.882	129.316	-58.1047	186.506	119.971	-29.8713	160.635	114.106	-49.859	
308	2.56667	154.336	74.0253	-48.8414	147.282	61.89	-70.058	136.201	58.2539	-94.6924	127.712	56.6909	-117.907	165.867	111.737	-113.636	168.764	117.816	-140.432	171.372	125.153	-158.516	198.471	98.852	-117.362	209.81	72.0362	-119.016	201.449	58.6674	-84.5677	216.38	95.4489	-105.004	220.649	68.2474	-94.6426	201.822	65.6238	-67.8291	224.147	101.928	-89.6411	225.813	72.587	-80.0058	202.649	75.915	-53.5604	194.747	123.554	-58.7258	189.478	117.442	-29.552	163.539	106.392	-51.6737	
309	2.575	157.17	67.7746	-48.6187	149.286	55.9991	-76.089	139.58	50.4225	-100.786	136.241	47.3661	-119.073	168.674	101.179	-118.018	174.68	106.366	-138.795	180.248	114.276	-162.16	202.622	93.0165	-114.077	216.924	60.36	-113.828	207.441	51.88	-81.3752	220.288	86.0447	-103.66	225.941	59.7478	-91.5382	206.505	60.7587	-61.3737	232.452	92.0346	-87.9549	231.086	65.9795	-77.9178	208.836	67.7521	-52.2472	195.288	117.343	-56.3868	192.703	112.953	-26.7779	167.654	103.361	-53.3658	
310	2.58333	157.607	61.2194	-51.1288	156.555	49.3717	-73.5871	144.497	40.8339	-96.7669	142.043	37.9079	-119.252	176.25	92.99	-119.256	181.933	95.6979	-138.864	190.749	102.718	-160.857	208.198	82.4059	-113.14	222.976	54.2297	-111.849	209.294	42.1169	-78.7053	226.557	82.8902	-98.9706	226.117	51.4788	-87.6767	207.261	54.3831	-60.8277	237.923	84.2701	-86.4788	229.966	58.5562	-73.0704	209.549	65.0324	-48.8319	198.065	112.51	-60.0148	192.378	106.469	-28.5489	170.284	95.7428	-54.9954	
311	2.59167	160.588	57.0226	-49.6943	156.098	41.3239	-69.6453	151.18	35.1829	-94.1001	145.047	27.3518	-115.931	181.306	85.623	-117.409	187.135	85.9415	-139.043	196.199	91.9367	-166.924	210.904	71.9868	-113.473	226.187	44.915	-108.204	213.953	35.7512	-75.2789	226.183	73.427	-97.4709	230.257	44.4072	-81.9761	208.669	50.1871	-56.3445	239.898	80.8601	-82.0724	237.579	53.1323	-67.1654	211.026	59.0962	-48.6067	200.992	105.539	-59.3241	193.733	103.942	-29.7725	171.864	90.1171	-53.7421	
312	2.6	159.353	49.9183	-47.5087	156.596	34.8061	-69.4639	149.802	24.8657	-95.4269	149.178	18.5156	-116.921	182.629	74.4509	-119.397	192.88	76.3709	-140.978	201.879	80.5212	-160.552	212.876	63.6849	-110.7	226.482	34.3165	-103.472	213.528	29.1166	-70.5142	231.356	63.2716	-95.6189	231.676	38.8647	-79.1567	208.057	44.8437	-53.1802	238.873	70.0856	-82.1529	234.491	46.9244	-65.5396	211.861	56.5634	-41.5655	202.801	103.431	-58.4579	190.078	97.9143	-32.8978	168.448	84.6358	-57.0215	
313	2.60833	159.802	45.0548	-48.0501	153.481	25.7077	-66.4979	148.965	15.8194	-91.0827	146.484	6.62771	-111.719	186.433	65.2084	-114.59	193.1	61.4476	-140.275	204.888	65.7146	-159.96	217.887	55.2778	-106.615	228.268	26.7061	-96.1463	211.884	22.3695	-63.9502	231.769	59.2682	-90.9335	233.52	31.4816	-73.6478	210.202	38.0368	-49.0299	239.974	62.6978	-78.5142	233.175	39.0114	-61.306	213.451	48.1368	-37.9733	201.007	93.4404	-62.0346	190.765	95.616	-27.1476	170.187	78.5545	-54.4095	
314	2.61667	152.704	38.0555	-42.0162	153.011	20.6058	-60.7156	150.589	9.45076	-89.6353	146.196	-1.02705	-107.656	184.295	53.7026	-116.049	192.141	49.3117	-135.527	207.486	50.1264	-156.745	213.71	44.4458	-103.151	224.074	15.1167	-88.2548	211.853	18.3902	-56.9498	228.996	48.1593	-87.7248	228.513	24.0402	-70.136	203.869	32.7331	-45.7971	234.248	57.7277	-75.9712	231.938	33.4663	-57.9626	207.514	40.3926	-38.4619	201.238	88.5296	-60.7165	185.681	87.4444	-31.3826	165.843	70.6089	-53.8122	
315	2.625	151.252	35.1718	-37.7845	148.246	14.8716	-56.7216	146.148	2.39527	-81.902	139.441	-10.3822	-100.033	182.17	44.3044	-111.149	192.614	39.7392	-130.243	206.009	35.1746	-157.241	208.087	35.5028	-98.8743	222.231	8.24866	-82.0755	204.175	9.93061	-53.0031	227.051	37.4823	-83.9769	225.469	17.2047	-64.1998	199.046	27.8656	-41.08	233.843	45.9402	-72.6235	226.636	27.1783	-52.4172	202.721	40.5764	-31.5137	196.274	81.5009	-61.1527	183.77	84.0849	-28.8053	163.176	67.1862	-54.175	
316	2.63333	144.571	31.1727	-35.8718	144.709	10.8974	-56.0063	138.51	-3.64176	-75.8356	134.77	-16.9623	-96.0244	176.413	32.5743	-111.59	187.378	24.8721	-131.93	203.399	22.3284	-151.377	202.882	24.0011	-95.4183	215.887	0.99954	-80.1154	200.222	7.06116	-45.1901	218.866	29.3135	-80.0186	220.119	10.0782	-56.1229	196.098	26.3388	-33.2757	228.197	38.0711	-68.7304	224.373	21.1261	-48.643	198.71	35.4357	-26.8718	190.821	76.0989	-56.4021	177.865	82.6101	-26.9305	157.071	60.141	-53.5187	
317	2.64167	141.06	26.3197	-36.2216	135.566	4.41749	-54.6383	132.583	-11.8456	-77.0218	133.141	-21.576	-91.9497	171.853	25.7273	-107.997	182	17.2172	-124.983	195.385	9.84407	-144.543	201.569	15.7474	-92.085	211.348	-5.19944	-71.1651	192.913	4.13188	-40.4785	210.385	24.8625	-77.9809	213.09	4.08895	-49.9859	188.846	20.7576	-31.796	224.371	33.5991	-66.1906	217.465	15.2678	-43.7452	192.54	28.9563	-28.6389	189.486	71.0185	-59.5642	175.834	79.1378	-29.1995	154.884	55.2969	-51.869	
318	2.65	135.275	23.2138	-34.6714	131.31	1.45422	-46.233	128.609	-16.2456	-70.3784	125.445	-28.877	-84.2167	167.561	18.7517	-103.2	179.876	6.87581	-122.218	193.645	-2.75003	-141.826	195.772	10.0043	-87.4633	202.066	-13.0031	-69.2708	184.778	-1.19738	-35.6993	207.345	18.532	-73.3384	204.588	-2.88078	-47.5457	181.464	14.4694	-28.9206	219.224	26.9075	-62.9838	214.493	10.8651	-37.8166	187.539	25.121	-24.9047	180.472	62.7046	-56.7876	170.732	71.956	-28.786	152.066	52.4882	-49.2692	
319	2.65833	127.585	19.9658	-25.4967	126.933	-3.17872	-42.5404	120.393	-20.887	-62.5458	114.716	-35.375	-74.8511	160.985	12.0406	-96.0341	171.297	-2.08681	-113.69	184.003	-17.728	-135.381	184.175	3.93586	-83.3548	193.711	-20.3721	-61.3436	178.846	-9.88591	-33.1342	199.29	6.74654	-70.3567	201.868	-7.24398	-43.1687	178.052	12.5067	-24.2577	211.645	22.8728	-59.6916	207.567	5.15104	-36.3155	183.739	18.9269	-20.7112	175.924	57.4088	-55.2709	166.548	71.1244	-24.881	144.906	48.4939	-44.9788	
